<svg width="1807" height="1191" viewBox="0 0 1807 1191" fill="none" xmlns="http://www.w3.org/2000/svg">
<path d="M1327.4 144.7L1616.5 556.2C1698.6 673.1 1680.8 831 1574.7 926.7L1434.2 1053.4C1372.9 1108.7 1298.8 1132.8 1216.7 1124.2L766.2 1077.1C738.5 1074.2 714.4 1075.1 686.9 1080L496.6 1114.5C360.9 1139.1 230 1064.1 182.5 934.7L96.0001 699C60.3001 601.7 78.0001 500.4 144.8 421C211.5 341.7 308.2 306.8 410.2 325.3L445.2 331.7C550.2 350.8 650.1 313 716.3 229.1L811.6 108.3C888.2 11.1003 1013.3 -24.2997 1129.5 18.5003L1194.4 42.4003C1250.5 63.0003 1293.1 95.8003 1327.4 144.7Z" fill="#F5E1B3"/>
<path d="M697.3 606.4C697.3 606.4 968 589.8 924.2 887.6C880.5 1185.3 609.6 1038.1 609.6 1038.1C609.6 1038.1 454.4 688 697.3 606.4Z" fill="#382F32"/>
<path d="M747.9 651.5L816.8 673.3L850.5 733.6L732 738.901L705.7 682.701L747.9 651.5Z" fill="#E97776"/>
<path d="M356.6 486C356.6 486 245.7 514.5 202.4 575.6C159 636.7 294.4 669 294.4 669L398.6 592.3L356.6 486Z" fill="#FFB096"/>
<path d="M328.5 494.9C321.1 497.5 312.7 500.7 303.6 504.5C303.6 504.5 305.4 601.5 354.2 619.6C355.933 620.2 357.667 620.734 359.4 621.2L398.6 592.3L370.1 520.2C352.6 509.4 337 500 328.5 494.9Z" fill="#E97776"/>
<path d="M272.6 1093.8C269.3 1091 164.3 1104.4 124 1021.4C59.8 889.301 22.9 707.501 96.5 613.501C201.1 480.001 477.7 634.301 566.6 620.701C655.6 607.101 821.1 741.8 705 859.1C588.8 976.5 272.6 1093.8 272.6 1093.8Z" fill="#7392C7"/>
<path d="M232.9 558.8C354.8 559.6 505.3 630.1 566.6 620.7C594.8 616.4 630.6 626.9 662.7 647.1C679.2 722.9 695.5 810 703.4 860.7C672.9 891.1 629.1 921.4 581 949.7C380.3 1013.4 28.3 1106.2 186.5 997C507.2 629.7 233.2 559.2 232.9 558.8Z" fill="#647AA1"/>
<path d="M480.2 1179.1C638.9 1173.2 819.1 1195.1 868.2 1160.4C950.6 1102.1 974.4 943.2 793.9 865.3C709.4 828.9 548.3 842.4 402.9 882.1C105.5 802.3 -3.9998 1162.7 249.2 1178.3C307 1181.8 389.3 1182.5 480.2 1179.1Z" fill="#7392C7"/>
<path d="M480.2 1179.1C541.3 1176.9 605.7 1178.7 664.5 1179.9C664.5 1179.9 613.3 1156.8 544.3 1124C475.3 1091.3 466.3 1027.5 466.3 1027.5L441.9 1059.2L472.5 1179.4L480.2 1179.1Z" fill="#647AA1"/>
<path d="M475.8 864.7C451.3 869.7 426.9 875.6 402.9 882.1C260 843.8 160.5 907 123.8 984.8C230 889.9 292.8 1023.1 350.8 1025.3C512.1 1031.4 481.7 960.9 475.8 864.7Z" fill="#647AA1"/>
<path d="M383.8 750.4C383.8 750.4 392.4 925.8 498.7 904.8C604.9 883.8 695.4 761.7 695.4 761.7C695.4 761.7 602.4 708.4 383.8 750.4Z" fill="#E2B80F"/>
<path d="M530.8 372.8C530.8 372.8 546.6 466.2 534.2 473.6C521.9 481 502.1 479.8 502.1 479.8C502.1 479.8 556.5 564.4 670.1 532.9C670.1 532.9 644.2 521.8 639.8 500.2C635.5 478.6 639.8 429.8 639.8 429.8L530.8 372.8Z" fill="#FFB096"/>
<path d="M638.8 493.1C636.3 469.5 639.8 429.8 639.8 429.8L552.8 384.3C549.8 411.2 552.3 439.9 569.6 460C590.6 484.5 616.6 494.5 638.8 493.1Z" fill="#E97776"/>
<path d="M542.6 271.7C542.6 271.7 512.6 295 507.7 332.3C506.5 341.3 530.5 362.1 530.8 371.2C531.5 390.5 536.3 409.2 548.6 423.5C590.8 472.8 652.8 463.4 664.7 421.5C669.1 406.2 665.9 377.3 660.6 346.7C658.4 333.7 661.8 318 655.5 306.7C636.2 272 592.8 252 542.6 271.7Z" fill="#FFB096"/>
<path d="M539.9 268.001C528.9 272.101 506.9 293.301 506.8 330.901C506.8 344.101 527.7 367.001 531.2 378.101L540.3 365.101L521.6 355.401C521.6 355.401 523.6 346.201 531.2 347.501C538.8 348.901 543.6 356.601 547.3 363.701C552.2 365.301 558.7 367.501 562.5 368.101C562.5 366.101 558.6 312.401 577.4 309.001C596.2 305.501 629.5 316.601 638.4 313.901C647.2 311.201 654.1 304.601 654.2 304.401C638.6 276.901 594.5 243.601 539.9 268.001Z" fill="#382F32"/>
<path d="M543.3 362.3C543.3 362.3 525.3 344.2 519.1 349.1C512.9 353.9 507.3 375.5 520.4 382.1C533.5 388.7 543.2 379.1 543.2 379.1L543.3 362.3Z" fill="#E97776"/>
<path d="M589.5 363.1C589.5 363.1 611.6 353.6 618.6 355.4C625.6 357.2 621.6 374.7 606.6 370.7C591.5 366.8 589.5 363.1 589.5 363.1Z" fill="white"/>
<mask id="mask0_7_1333" style="mask-type:luminance" maskUnits="userSpaceOnUse" x="589" y="355" width="33" height="17">
<path d="M589.51 363.14C589.51 363.14 611.61 353.65 618.59 355.41C625.57 357.17 621.61 374.72 606.58 370.75C591.55 366.77 589.51 363.14 589.51 363.14Z" fill="white"/>
</mask>
<g mask="url(#mask0_7_1333)">
<path d="M614.7 355.1C618.3 355.1 620.7 358.8 620 363.5C619.3 368.1 615.8 371.8 612.2 371.8C608.6 371.8 606.2 368.1 606.9 363.5C607.6 358.8 611.1 355.1 614.7 355.1Z" fill="#382F32"/>
<path d="M608 362.7C609 362.7 609.8 363.8 609.6 365.2C609.3 366.6 608.3 367.7 607.2 367.7C606.1 367.7 605.4 366.6 605.6 365.2C605.8 363.8 606.9 362.7 608 362.7Z" fill="white"/>
</g>
<path d="M629.3 364.701C629.3 364.701 648.8 355.301 655 357.001C661.2 358.801 657.7 376.301 644.4 372.401C631.1 368.401 629.3 364.701 629.3 364.701Z" fill="white"/>
<mask id="mask1_7_1333" style="mask-type:luminance" maskUnits="userSpaceOnUse" x="629" y="356" width="29" height="17">
<path d="M629.29 364.75C629.29 364.75 648.83 355.25 654.99 357.01C661.16 358.78 657.67 376.33 644.37 372.36C631.08 368.38 629.29 364.75 629.29 364.75Z" fill="white"/>
</mask>
<g mask="url(#mask1_7_1333)">
<path d="M652.8 356.9C655.8 356.9 657.6 360.3 656.8 364.6C656.1 368.8 653.1 372.3 650.2 372.3C647.2 372.3 645.4 368.8 646.2 364.6C646.9 360.3 649.9 356.9 652.8 356.9Z" fill="#382F32"/>
<path d="M647.1 363.9C647.9 363.9 648.5 364.9 648.3 366.2C648.1 367.5 647.2 368.5 646.3 368.5C645.4 368.5 644.8 367.5 645.1 366.2C645.3 364.9 646.2 363.9 647.1 363.9Z" fill="white"/>
</g>
<path d="M632.4 356.8C632.4 356.8 664.1 340.3 663.6 349.3C663 358.4 637.5 363.8 632.4 356.8Z" fill="#382F32"/>
<path d="M633.2 353.9L625.4 365.9L624.2 403.9L647 399.1L642.3 349.7L633.2 353.9Z" fill="#FFB096"/>
<path d="M642.2 349.1C643.1 352.9 649 395.8 648.7 399.6C648.4 403.4 631.4 404.4 630 403.3C628.6 402.1 644.4 399.9 644.5 396C644.5 392.2 642.2 349.1 642.2 349.1Z" fill="#E97776"/>
<path d="M582.9 345.401C582.9 345.401 628.9 356.001 628.2 346.801C627.4 337.601 590.4 337.201 582.9 345.401Z" fill="#382F32"/>
<path d="M310.1 485.6C310.1 485.6 418 466.1 518.6 478.8C518.6 478.8 566.9 557.2 660.7 521.6L718.2 576.9L726.1 769.5L641.2 852.5C641.2 852.5 478.1 822.8 332.3 824.1L379.3 606.7C379.3 606.7 338.5 563.4 310.1 485.6Z" fill="white"/>
<path d="M384.8 1049.4C377.4 1037.4 279.6 797 287.6 702C295.5 607 379.3 606.7 414.7 660C450.2 713.3 472.5 1019.2 472.5 1019.2C472.5 1019.2 430.6 1008.5 384.8 1049.4Z" fill="#FFD013"/>
<path fill-rule="evenodd" clip-rule="evenodd" d="M534.5 556.2C559 556.2 580.2 567.1 594 584.5L497.3 564.9C508.7 559.3 521.4 556.2 534.5 556.2ZM608.2 612.5L445.1 638.5C447.7 615.6 458.9 595 475.1 580.1L606.4 606.7C607.067 608.567 607.667 610.5 608.2 612.5ZM611.2 631.5C611.333 634.9 611.267 638.3 611 641.7C609.6 659.3 603.3 675.5 593.4 689.1L456.9 656.1L611.2 631.5ZM521.3 727.3C486.5 727.3 458.4 705.2 448.5 673.9L578.6 705.3C562.8 719 542.7 727.3 521.3 727.3Z" fill="#7392C7"/>
<path d="M676.1 613.201L660.7 521.601C660.7 521.601 756.6 551.801 829 670.601L692.4 700.701L676.1 613.201Z" fill="white"/>
<path d="M722.6 554.9C744.2 570.1 769.2 591.5 793.7 621C786.1 625.6 777.2 628.3 767.7 628.3C739.8 628.3 717.1 605.6 717.1 577.7C717.1 569.5 719.1 561.8 722.6 554.9Z" fill="#FFD013"/>
<path d="M682.2 700C682.2 700 812.8 692.3 843.8 724.6C874.9 757 846.1 824.3 765.5 805.8C684.9 787.4 641.9 728.7 641.9 728.7C641.9 728.7 622.1 693.1 682.2 700Z" fill="#FFB096"/>
<path d="M383.8 999.2L384.8 1049.4C384.8 1049.4 436.7 1072.2 472.5 1019.2C472.5 1019.2 436.7 969.2 383.8 999.2Z" fill="#382F32"/>
<path d="M358.3 971.7L414.5 1091.5C414.5 1091.5 471.3 1090.3 471.3 1086.6C471.3 1082.9 459.6 950.7 459.6 950.7L358.3 971.7Z" fill="#FFB096"/>
<path d="M405.2 1071.8C405.2 1071.8 377.1 1178.3 382.1 1178.3C387 1178.3 529.7 1179.6 529.7 1179.6L469.2 1060.4C469.2 1060.4 442.6 1038.4 405.2 1071.8Z" fill="#382F32"/>
<path d="M416 1072.9C415.4 1072.9 414.9 1072.4 414.9 1071.8C414.9 1071.1 415.4 1070.6 416 1070.6C417.9 1070.6 467.5 1072.8 467.7 1072.8C468.3 1072.8 468.8 1073.3 468.8 1074C468.7 1074.4 468.5 1074.8 468.1 1075L423.8 1097.6L475.6 1098.4C476.3 1098.4 476.8 1098.9 476.8 1099.6C476.8 1100 476.5 1100.4 476.2 1100.6L426.8 1127.5C426.2 1127.8 425.5 1127.6 425.2 1127C424.9 1126.4 425.1 1125.7 425.7 1125.4L471.2 1100.7L419.2 1099.8C418.7 1099.8 418.3 1099.6 418.1 1099.2C417.8 1098.6 418 1097.9 418.6 1097.6L463.1 1074.9C450.9 1074.4 417.6 1072.9 416 1072.9Z" fill="#FFD013"/>
<path d="M667.9 627.1L684.2 696.3C685.4 701.2 684.1 705.7 681.2 707.5C678.2 709.2 674.4 707.6 672 703.5C660.4 684.3 649 656.3 653.6 624.7C654.2 620.3 657 617.7 660.4 618.3C663.8 618.9 666.8 622.4 667.9 627.1Z" fill="#FFB096"/>
<path d="M624.8 727L595.3 706.5C595.3 706.5 637.8 620.4 639.6 622.5C648.6 633.3 706.3 695.3 679 727.8C658.1 752.7 644.1 740.4 624.8 727Z" fill="#FFB096"/>
<path d="M638.5 654.3L588.6 605.5C585.1 602.1 584.1 597.5 586.1 594.3C588.2 591.1 592.6 590.3 597 592.3C617.7 601.7 641 611.3 653.7 648C655.1 652.1 653.8 655.8 650.2 657.3C646.6 658.8 641.9 657.6 638.5 654.3Z" fill="#FFB096"/>
<path d="M615.2 673.9L564.7 627.6C561.1 624.3 560.3 619.2 562.7 615C565.1 610.8 569.9 608.9 574.5 610.3C596.1 616.9 621.7 631.4 631.8 663.3C633.2 667.8 631.5 672.5 627.6 675C623.6 677.5 618.7 677.1 615.2 673.9Z" fill="#FFB096"/>
<path d="M628 672.2L574.5 629.4C570.7 626.4 565.5 626.4 561.8 629.4C558 632.4 556.8 637.5 558.9 641.8C568.8 662.1 587.1 685.2 620.1 690.2C624.8 690.9 629.1 688.5 631 684.3C632.9 680 631.7 675.1 628 672.2Z" fill="#FFB096"/>
<path d="M611.6 696.401L572.4 672.701C569.6 671.001 566.2 671.501 563.9 673.801C561.7 676.101 561.4 679.601 563.1 682.301C571.4 694.901 585.6 708.6 607.9 709.1C611.1 709.2 613.8 707.201 614.6 704.201C615.5 701.201 614.3 698.101 611.6 696.401Z" fill="#FFB096"/>
<path fill-rule="evenodd" clip-rule="evenodd" d="M437 1078.9C436.8 1078.9 383.8 1095 377.3 1071.1C370.5 1045.9 436.9 1076.6 437.1 1076.7C437.7 1076.9 438 1077.6 437.7 1078.2C437.5 1078.5 437.3 1078.8 437 1078.9ZM379.6 1070.5C384.6 1088.8 422.1 1080.4 433.2 1077.5C421 1072.1 374.8 1052.8 379.6 1070.5Z" fill="#FFD013"/>
<path fill-rule="evenodd" clip-rule="evenodd" d="M502.2 1062.2C506 1088.6 438.6 1079.3 437.9 1079.2C437.5 1079.2 437.2 1079 437 1078.7C436.7 1078.2 436.8 1077.5 437.3 1077.1C437.5 1077 498.3 1035.4 502.2 1062.2ZM441.3 1077.3C454.2 1078.8 502.8 1082.9 499.9 1062.5C496.9 1042.3 452.6 1069.9 441.3 1077.3Z" fill="#FFD013"/>
<path d="M379 1176.3C379 1176.3 384 1151.4 385.3 1149.3C386.6 1147.2 500.5 1139.6 516.9 1146.4C533.2 1153.2 534.2 1178.8 534.2 1178.8L379 1176.3Z" fill="#F5E1B3"/>
<path d="M303.5 1074L288.9 1052.4C288.9 1052.4 239.5 1078.8 236.3 1104.8C233.1 1130.7 285.2 1162.8 326.9 1173.7C368.6 1184.6 401 1104.9 401 1104.9L303.5 1074Z" fill="#F5E1B3"/>
<path d="M471.3 1009.1L438.6 1047.8C438.6 1047.8 388.7 1027.7 398.1 959.9C398.1 959.9 454.3 946.9 471.3 1009.1Z" fill="#382F32"/>
<path d="M506.1 1006.3L391.6 1059.1C391.6 1059.1 353.6 1016.5 356 1013.6C358.4 1010.7 450.5 915.7 450.5 915.7L506.1 1006.3Z" fill="#FFB096"/>
<path d="M438.6 1047.8C451.3 1043.8 670.9 927.001 726 846.701C781.1 766.4 724.2 704.801 666.1 720.701C608 736.501 398.1 959.901 398.1 959.901C398.1 959.901 433.4 982.201 438.6 1047.8Z" fill="#FFD013"/>
<path d="M438.6 1047.8C450.1 1044.2 630.3 948.6 705.7 870.9L620.5 876C620.5 876 477.1 1001.1 432.4 1013.4C435.3 1023.3 437.6 1034.7 438.6 1047.8Z" fill="#E2B80F"/>
<path d="M417.4 1054.1C417.4 1054.1 402.7 1146.9 345.1 1151C287.5 1155 218.7 1099.9 276.4 1060.8L373.8 995C373.8 995 409.3 996.5 417.4 1054.1Z" fill="#382F32"/>
<path d="M404.6 1045.8C405.1 1046.3 405.7 1046.2 406 1045.6C406.4 1045 406.3 1044.2 405.8 1043.7C404.6 1042.4 369.6 1008 369.5 1007.9C369.1 1007.4 368.5 1007.6 368.2 1008.2C367.9 1008.6 367.9 1009.1 368.1 1009.5L386.5 1062.5L350.7 1025.3C350.3 1024.8 349.7 1024.9 349.4 1025.5C349.1 1025.9 349.1 1026.5 349.2 1026.9L368.9 1087.5C369.1 1088.2 369.7 1088.5 370.2 1088.2C370.7 1087.9 370.9 1087.1 370.7 1086.4L352.6 1030.6L388.5 1067.9C388.8 1068.3 389.2 1068.4 389.6 1068.1C390.1 1067.8 390.3 1067 390 1066.4L371.5 1013.1C380.1 1021.6 403.6 1044.7 404.6 1045.8Z" fill="#FFD013"/>
<path fill-rule="evenodd" clip-rule="evenodd" d="M387.1 1034.8C387.2 1034 387.8 1033.6 388.3 1033.8C388.5 1033.8 449.7 1054.6 432 1072.4C415.1 1089.4 387.4 1036 387.3 1035.9C387.1 1035.6 387.1 1035.2 387.1 1034.8ZM390.6 1037.4C396.6 1048.2 417.8 1083.3 430.7 1070.3C443.2 1057.7 401.7 1041.4 390.6 1037.4Z" fill="#FFD013"/>
<path fill-rule="evenodd" clip-rule="evenodd" d="M387.9 1034C388.1 1034.7 387.8 1035.5 387.3 1035.7C387 1035.8 386.7 1035.8 386.5 1035.6C385.9 1035.1 335.2 994.2 351.5 973C368.2 951.5 387.9 1033.8 387.9 1034ZM352.9 975C340.3 991.3 375.6 1023.2 385.2 1031.3C381.3 1016.3 365.5 958.8 352.9 975Z" fill="#FFD013"/>
<path d="M812.4 958L763.1 855C763.1 855 670.7 810.1 564.1 923.4C457.5 1036.6 467.4 1039.7 467.4 1039.7C467.4 1039.7 844.5 1054.3 812.4 958Z" fill="#7392C7"/>
<path d="M598.6 401.4C598.6 401.5 613.3 420.7 635.3 410.6L636.4 412.9C612.5 423.9 596.6 403 596.6 403L598.6 401.4Z" fill="#E97776"/>
<path d="M548.6 952C548.6 952 615.1 832.6 725.3 853C835.5 873.5 766.7 991.9 548.6 952Z" fill="#8EA8D4"/>
<path d="M65.8 709.3C65.8 709.3 86.8001 572 191.5 574.8C296.2 577.5 65.8 709.3 65.8 709.3Z" fill="#8EA8D4"/>
<path d="M375.7 923.2C375.7 923.2 311.2 897.3 256.7 948.3C256.7 948.3 315 968.9 375.7 923.2Z" fill="#382F32"/>
<path d="M195 843.4C195 843.4 257.6 873.6 256.7 948.3C256.7 948.3 202.1 919.1 195 843.4Z" fill="#382F32"/>
<path d="M386.5 880.8C386.5 880.8 326.6 856.7 275.9 904.1C275.9 904.1 330.1 923.4 386.5 880.8Z" fill="#382F32"/>
<path d="M218.5 806.6C218.5 806.6 276.7 834.7 275.9 904.1C275.9 904.1 225.1 877 218.5 806.6Z" fill="#382F32"/>
<path d="M393.1 838.8C393.1 838.8 340.2 817.5 295.4 859.4C295.4 859.4 343.3 876.4 393.1 838.8Z" fill="#382F32"/>
<path d="M244.8 773.4C244.8 773.4 296.2 798.1 295.4 859.4C295.4 859.4 250.6 835.4 244.8 773.4Z" fill="#382F32"/>
<path d="M394.4 799C394.4 799 351 781.6 314.3 815.9C314.3 815.9 353.5 829.8 394.4 799Z" fill="#382F32"/>
<path d="M272.7 745.3C272.7 745.3 314.9 765.6 314.3 815.9C314.3 815.9 277.5 796.2 272.7 745.3Z" fill="#382F32"/>
<path d="M332.7 766.9L233.3 1006.3L236 1007.4L335.4 768L332.7 766.9Z" fill="#382F32"/>
<path d="M356.4 713C356.4 713 365.9 758.8 325.6 788.9C325.6 788.9 318.9 747.8 356.4 713Z" fill="#382F32"/>
<path d="M22.0001 675.8C6.50008 679.8 -2.89991 695.7 1.20009 711.3C3.10009 718.5 7.50009 724.3 13.2001 728.2C20.0001 732.7 23.9001 739.8 24.0001 748C24.0001 751.4 24.5001 754.8 25.3001 758.3C28.1001 768.9 34.6001 777.5 43.0001 783.1C51.4001 788.7 55.3001 798.2 53.3001 808C51.5001 817.1 51.7001 826.8 54.2001 836.3C57.7001 849.8 65.2001 861.1 75.2001 869.3C81.7001 874.6 84.8001 882.3 83.8001 890.7C82.9001 899 83.4001 907.6 85.6001 916.1C95.3001 953.4 133.4 975.7 170.7 966C208 956.3 230.3 918.2 220.6 881C216 863.2 204.9 848.8 190.5 839.7C183.3 835.1 179.3 828 179.2 819.5C179.2 814.5 178.5 809.4 177.2 804.3C170.8 779.9 151.1 762.5 127.9 758C118.1 756 110.9 748.8 108.9 739C108.7 738.2 108.5 737.434 108.3 736.7C103.9 719.7 90.0001 707.8 73.7001 705.1C65.6001 703.8 59.2001 699 55.7001 691.5C49.9001 679.1 35.8001 672.2 22.0001 675.8Z" fill="#FFD013"/>
<path d="M188.8 1006.5C188.7 1006 170.1 844.9 32.4 703.4L30.5 705.2C167.6 846.1 186.1 1006.3 186.2 1006.8L188.8 1006.5Z" fill="#382F32"/>
<path d="M313.2 977.2L273.2 1174.3H228.5H201.2H156.5L116.5 977.2H201.2H228.5H313.2Z" fill="#FFD013"/>
<path d="M199.4 1174.3H156.7L116.7 977.2H159.4L199.4 1174.3Z" fill="#E2B80F"/>
<path d="M892.4 958.6C892.4 958.6 742.2 633.5 1074 587.1C1405.9 540.6 1609.4 667.7 1565.7 798.8C1522 929.9 1369 973.6 1369 973.6L892.4 958.6Z" fill="#FFD013"/>
<path d="M995 654.7C998.3 642.1 997.9 625.8 993.2 608.9C988.5 592 980.3 577.8 971 568.8C970 567.9 968.7 567.7 967.8 568.5C966.8 569.2 966.5 570.6 966.9 572C971.3 584.9 975.5 598.5 979.4 612.7C983.4 626.9 986.9 640.7 989.9 654.1C990.2 655.4 991.2 656.4 992.4 656.6C993.6 656.7 994.6 656 995 654.7Z" fill="#FFB096"/>
<path d="M986.7 663.5C977.4 654.5 969.2 640.3 964.5 623.4C959.8 606.5 959.5 590.2 962.7 577.6C963.1 576.3 964.1 575.6 965.3 575.7C966.5 575.8 967.5 576.9 967.9 578.2C970.8 591.5 974.3 605.4 978.3 619.6C982.2 633.7 986.4 647.4 990.8 660.3C991.2 661.6 990.9 663 989.9 663.8C989 664.5 987.7 664.4 986.7 663.5Z" fill="#FFB096"/>
<path d="M969.9 657.5C962.9 652.5 956.4 644.1 952 633.5C947.7 623 946.4 612.4 947.8 603.9C948 603.1 948.6 602.5 949.5 602.5C950.3 602.4 951.1 603 951.4 603.9C954.3 612.2 957.6 620.9 961.2 629.7C964.9 638.6 968.6 647 972.5 655C972.9 655.9 972.7 656.8 972.1 657.4C971.5 657.9 970.6 658 969.9 657.5Z" fill="#FFB096"/>
<path d="M1004.4 654.8C1010.3 644.9 1013.6 630.7 1012.9 615C1012.1 599.3 1007.4 585.1 1000.4 575.1C999.7 574 998.5 573.6 997.4 574C996.4 574.4 995.7 575.6 995.9 576.8C997.2 589 998.2 601.8 998.8 614.9C999.5 628.1 999.7 640.9 999.7 653C999.6 654.3 1000.4 655.4 1001.5 655.9C1002.6 656.3 1003.8 655.9 1004.4 654.8Z" fill="#FFB096"/>
<path d="M1012.1 626.1L958.2 641C958.2 641 965.6 666 971.9 680.8C989.3 721.8 1013.6 702 1013.9 668.3C1014 659.7 1014.9 638.4 1012.1 626.1Z" fill="#FFB096"/>
<path d="M1012.3 649.3C1017.5 638.1 1025.3 629.3 1033.7 624.4C1034.6 623.9 1035.6 624 1036.4 624.7C1037.1 625.4 1037.3 626.4 1036.8 627.3C1032.2 635.8 1027.6 644.8 1023.3 654.3C1018.9 663.7 1015.3 674.9 1011.8 683.9C1009 691.2 1003 669.3 1012.3 649.3Z" fill="#FFB096"/>
<path d="M1006.5 658.6C1006.4 658.6 988.9 665.3 996.5 683.1L993.7 684.3C984.8 663.6 1005.3 655.7 1005.3 655.7L1006.5 658.6Z" fill="#E97776"/>
<path d="M1565.7 798.801C1522 929.901 1369 973.601 1369 973.601L926 959.601C915.8 951.101 905.9 941.901 896.5 931.901L920.7 876.7C920.7 876.7 1013 869.601 1049.5 814.501C1085.9 759.301 1247 770.901 1247 770.901C1247 770.901 1405.9 930.601 1565.7 798.801Z" fill="#E2B80F"/>
<path d="M1113.5 403.9L1108.9 402.4L1098.5 412C1098.5 412 1123.6 351.6 1201.6 360.5C1243 365.2 1227.6 404.2 1215.9 449.7C1205.6 489.9 1213.7 542.8 1251.2 574.1C1251.2 574.1 1197.4 609.6 1108.5 572.9C1127.9 518.9 1113.5 403.9 1113.5 403.9Z" fill="#382F32"/>
<path d="M1106.2 704.5C1101.4 705.2 1045.9 777.6 1045.9 777.6C1045.9 777.6 1187 869.901 1279.4 821.301C1279.4 821.301 1223.6 695 1106.2 704.5Z" fill="#382F32"/>
<path d="M1247 770.901L1254.3 837C1254.3 837 1118.8 850.8 1096.6 839.1C1074.3 827.3 1080.1 734 1080.1 734C1080.1 734 1231.8 739.401 1247 770.901Z" fill="#FFB096"/>
<path d="M1204.1 459.9C1204.1 459.9 1183.4 594.5 1209.8 614C1236.2 633.6 1251 624.9 1251 624.9C1251 624.9 1157.5 699.4 1082 632.1C1082 632.1 1150.7 643.1 1140.5 512.3L1204.1 459.9Z" fill="#FFB096"/>
<path d="M1074.3 668.3L1057.5 639L966.4 771.401L990.2 802.6L1070.9 713.401L1074.3 668.3Z" fill="#E97776"/>
<path d="M1095 626.701C1095 626.701 1125.8 673.8 1225.4 616.5L1272.6 628.8C1272.6 628.8 1283.5 823.401 1279.4 821.301C1213.8 767.401 1133.3 754.4 1045.9 777.6L1057.5 639L1095 626.701Z" fill="#382F32"/>
<path d="M1139.6 567.4C1141.7 552.6 1142.3 534.5 1140.5 512.3L1198.1 464.8C1195 538.6 1159.1 561.1 1139.6 567.4Z" fill="#E97776"/>
<path d="M986.1 689.8C986.1 689.8 954.6 728.2 948.7 745.5C943.2 761.7 952.3 807 981.7 790.6C1011 774.2 1005.6 689.8 1005.6 689.8H986.1Z" fill="#FFB096"/>
<path d="M1130.9 818.7L1151 751.2C1151 751.2 1298 850 1298 874.6C1298 899.2 1177.8 938.1 1143.7 902.6C1109.6 867.1 1130.9 818.7 1130.9 818.7Z" fill="#7392C7"/>
<path d="M1135.5 539.8C1196.8 524.1 1211.8 473.2 1191.9 416.1C1173 361.9 1114 383.1 1098 412.9C1094.7 419.1 1098 432.5 1096.8 449C1094 490.9 1096 549.8 1135.5 539.8Z" fill="#FFB096"/>
<path d="M1130.7 459.4C1130.7 459.4 1105.1 455 1101.5 461.3C1097.9 467.6 1122.8 478.2 1130.7 459.4Z" fill="white"/>
<mask id="mask2_7_1333" style="mask-type:luminance" maskUnits="userSpaceOnUse" x="1101" y="457" width="30" height="14">
<path d="M1130.66 459.44C1130.66 459.44 1105.06 454.99 1101.47 461.29C1097.89 467.6 1122.84 478.21 1130.66 459.44Z" fill="white"/>
</mask>
<g mask="url(#mask2_7_1333)">
<path d="M1105.7 449.9C1110.5 448.6 1115.2 452 1116.3 457.4C1117.5 462.9 1114.5 468.3 1109.8 469.6C1105.1 470.9 1100.3 467.5 1099.2 462.1C1098.1 456.6 1101 451.1 1105.7 449.9Z" fill="#382F32"/>
<path d="M1113.3 460C1114.8 459.6 1116.4 460.7 1116.8 462.5C1117.1 464.3 1116.2 466 1114.6 466.5C1113.1 466.9 1111.5 465.8 1111.2 464C1110.8 462.2 1111.8 460.5 1113.3 460Z" fill="white"/>
</g>
<path d="M1116.8 438.7C1116.8 438.7 1109.2 443.1 1101.7 446.7C1095.4 449.7 1089.2 452.1 1087.5 450.8C1083.6 448.1 1099 432.5 1116.8 438.7Z" fill="#382F32"/>
<path d="M1111.1 496.6L1153 489.3C1153 489.3 1131.6 526.1 1111.1 496.6Z" fill="#382F32"/>
<path d="M1148.4 495.8C1145 500 1139.9 505 1133.9 507.1C1132.1 506.7 1130.2 506 1128.3 504.8C1136.4 497 1143.1 494.9 1148.4 495.8Z" fill="#FFD013"/>
<path d="M1118 495.3L1147.9 490.2C1141.1 497.7 1129.7 505.8 1118 495.3Z" fill="white"/>
<path d="M1126.5 487.201L1110 476L1128.8 445L1145.3 438C1145.3 438 1166.7 488.501 1126.5 487.201Z" fill="#FFB096"/>
<path d="M1128.8 445C1128.8 445 1108.6 473.601 1108.6 476.701C1108.6 479.801 1121.9 487.3 1123.2 486.1C1124.6 484.9 1112.5 476.9 1113.3 474.1C1114.1 471.4 1128.8 445 1128.8 445Z" fill="#E97776"/>
<path d="M1177.7 459.3C1177.7 459.3 1145.1 454.4 1140.5 461.4C1136 468.3 1167.7 480.1 1177.7 459.3Z" fill="white"/>
<mask id="mask3_7_1333" style="mask-type:luminance" maskUnits="userSpaceOnUse" x="1140" y="457" width="38" height="15">
<path d="M1177.68 459.321C1177.68 459.321 1145.11 454.391 1140.55 461.361C1135.99 468.331 1167.72 480.071 1177.68 459.321Z" fill="white"/>
</mask>
<g mask="url(#mask3_7_1333)">
<path d="M1147.4 451.9C1152.8 450.6 1158.3 454 1159.6 459.4C1160.8 464.9 1157.5 470.4 1152 471.6C1146.6 472.9 1141.1 469.5 1139.8 464.1C1138.5 458.6 1141.9 453.2 1147.4 451.9Z" fill="#382F32"/>
<path d="M1155.8 462.1C1157.6 461.7 1159.3 462.8 1159.8 464.6C1160.2 466.3 1159.1 468.1 1157.3 468.5C1155.5 469 1153.8 467.9 1153.3 466.1C1152.9 464.3 1154 462.5 1155.8 462.1Z" fill="white"/>
</g>
<path d="M1175.3 434.3C1175.3 434.3 1164.6 430.6 1154.2 427.9C1145.4 425.6 1136.9 424 1134.9 425.8C1130.5 429.8 1153.6 445 1175.3 434.3Z" fill="#382F32"/>
<path d="M1207.3 386.901L1184.7 386.5C1184.7 386.5 1179.2 456.1 1204.6 462.5C1230 468.9 1207.3 386.901 1207.3 386.901Z" fill="#382F32"/>
<path d="M1198.3 461.5C1198.3 461.5 1216.3 445.5 1221.9 449C1227.5 452.6 1219.2 485.7 1207.7 485.6C1196.2 485.6 1198.3 461.5 1198.3 461.5Z" fill="#E97776"/>
<path d="M1094.7 461.1C1094.7 461.1 1102.9 452.8 1120.1 457.8C1120.1 457.8 1105.4 457.9 1094.7 461.1Z" fill="#382F32"/>
<path d="M1138.6 462.1C1138.6 462.1 1151.2 449.301 1177.6 457.001C1177.6 457.001 1155 457.1 1138.6 462.1Z" fill="#382F32"/>
<path d="M1215.3 367.8C1215.3 367.8 1257.9 329.9 1224.4 318.6C1190.9 307.4 1127.9 346.8 1215.3 367.8Z" fill="#382F32"/>
<path d="M1106 1181.5C1264.8 1175.6 1445 1197.5 1494.1 1162.7C1576.5 1104.5 1600.2 945.5 1419.8 867.7C1335.3 831.2 1174.2 844.8 1028.8 884.5C731.4 804.7 621.9 1165.1 875.1 1180.7C932.9 1184.2 1015.2 1184.9 1106 1181.5Z" fill="#FFD013"/>
<path d="M1106 1181.5C1264.8 1175.6 1445 1197.5 1494.1 1162.7C1503 1156.5 1511.1 1149.1 1518.4 1140.7C1390.6 1159.6 1256.1 1007.1 1256.1 1007.1C1256.1 1007.1 1306.3 1122 1263.9 1130C1221.4 1138 1113.3 1069 1113.3 1069C1053.5 1183.7 899.2 1174.3 899.2 1174.3L913.1 1182.5C966.5 1184.3 1033.6 1184.2 1106 1181.5Z" fill="#E2B80F"/>
<path d="M1105.2 1003.3L1084.3 1026.7L1126.3 1115.3L1169.4 1111.9L1130.2 1002.8L1105.2 1003.3Z" fill="#FFB096"/>
<path d="M989.2 735.1C1001.9 722.4 1023.1 714.3 1058 730.8C1130.4 765 1144.1 1040.9 1144.1 1040.9C1144.1 1040.9 1104.8 1026.6 1096.7 1052.8C1058.8 996.8 932.3 792.3 989.2 735.1Z" fill="#647AA1"/>
<path d="M1117.8 1102.4L1111.3 1174.3H1223.3L1164.3 1091.8C1164.3 1091.8 1135.9 1080.8 1117.8 1102.4Z" fill="white"/>
<path d="M1295.4 1064.2L1290.3 1081.9C1290.3 1081.9 1311.7 1133.1 1315.8 1149.5C1319.9 1165.9 1324.1 1185.9 1379.3 1182.7C1434.6 1179.6 1431.2 1164.5 1397.1 1126.9C1362.9 1089.4 1323.6 1057.6 1323.6 1057.6L1295.4 1064.2Z" fill="white"/>
<path d="M1115.6 673.1C1113.4 688 1104.2 737.3 1073.4 760H1045.4C1014.7 737.3 1005.4 688 1003.3 673.1H1059.4H1115.6Z" fill="white"/>
<path d="M1085.5 705.9C1088.9 701.5 1135.3 636.9 1125.8 632.5C1116.2 628.1 1081 703.5 1081 703.5L1085.5 705.9Z" fill="white"/>
<path d="M1257.1 996.2L1253.6 1037.1L1289.8 1081.3C1293.4 1085.7 1364.4 1122 1328.1 1064.8L1300.7 1021.5L1257.1 996.2Z" fill="#FFB096"/>
<path d="M1064.5 765.8C1073.3 749.1 1092.3 733.6 1133.2 743.2C1211.1 761.4 1300.7 1021.5 1300.7 1021.5C1300.7 1021.5 1261.1 1013.1 1253.6 1037.1C1253.6 1037.1 1165.5 955.3 1099.6 864.4C1076.7 832.9 1045 803 1064.5 765.8Z" fill="#7392C7"/>
<path d="M1156 1099.2C1154.3 1099.2 1141.3 1106.6 1134.6 1110.4L1167.7 1111.3L1134.8 1128.8L1133.6 1126.5L1157.8 1113.6L1125.5 1112.7L1129.4 1110.4C1129.5 1110.4 1152.9 1096.6 1156 1096.6V1099.2Z" fill="#FFD013"/>
<path fill-rule="evenodd" clip-rule="evenodd" d="M1138.3 1106.2C1138.1 1106.1 1094.1 1084.4 1110.8 1070.6C1127.6 1056.7 1140 1104.6 1140.1 1104.7L1140.8 1107.5L1138.3 1106.2ZM1112.5 1072.6C1101 1082.1 1128.1 1097.8 1136.8 1102.5C1134 1092.9 1124 1063 1112.5 1072.6Z" fill="#FFD013"/>
<path fill-rule="evenodd" clip-rule="evenodd" d="M1140.8 1107.5L1141.6 1104.7C1141.6 1104.6 1154 1056.7 1170.8 1070.6C1187.5 1084.4 1143.5 1106.1 1143.4 1106.2L1140.8 1107.5ZM1144.8 1102.6C1153.6 1097.9 1180.7 1082.2 1169.1 1072.7C1157.6 1063.1 1147.6 1093 1144.8 1102.6Z" fill="#FFD013"/>
<path d="M1346.6 1092.6C1344.8 1092.6 1331.8 1100 1325.2 1103.8L1358.2 1104.7L1325.3 1122.2L1324.1 1119.9L1348.4 1107L1316 1106.1L1320 1103.9C1320 1103.8 1343.4 1090 1346.6 1090V1092.6Z" fill="#FFD013"/>
<path fill-rule="evenodd" clip-rule="evenodd" d="M1328.8 1099.6C1328.7 1099.6 1284.6 1077.9 1301.4 1064C1318.1 1050.2 1330.6 1098 1330.6 1098.1L1331.4 1100.9L1328.8 1099.6ZM1303 1066C1291.4 1075.5 1318.5 1091.2 1327.3 1095.9C1324.4 1086.3 1314.4 1056.5 1303 1066Z" fill="#FFD013"/>
<path fill-rule="evenodd" clip-rule="evenodd" d="M1331.4 1100.9L1332.1 1098.1C1332.1 1098 1344.6 1050.2 1361.4 1064C1378.1 1077.9 1334 1099.6 1333.9 1099.6L1331.4 1100.9ZM1335.5 1096C1344.2 1091.3 1371.3 1075.6 1359.8 1066.1C1348.3 1056.6 1338.3 1086.4 1335.5 1096Z" fill="#FFD013"/>
<path d="M761.2 969.001C761.2 969.001 812.9 864.401 924.2 887.601C1035.6 910.801 1030.1 1064.3 761.2 969.001Z" fill="#FFDE59"/>
<path d="M1258.9 886.2C1258.9 886.2 1375 821.9 1476.7 904.6C1578.5 987.4 1527.8 1108.7 1258.9 886.2Z" fill="#FFDE59"/>
<path d="M1138.9 710C1138.9 710 1311 762.6 1328.1 781C1345.1 799.4 1343.1 851.301 1289.1 836.301C1235.2 821.301 1131.1 726.701 1131.1 726.701L1138.9 710Z" fill="#FFB096"/>
<path d="M1250.2 675.8L1272.6 628.8L1334.7 792L1258.3 785.7L1250.2 675.8Z" fill="#FFB096"/>
<path d="M1330.3 607.5C1330.3 607.5 1563.2 620.7 1535.2 765.3C1507.2 909.9 1330.3 607.5 1330.3 607.5Z" fill="#FFDE59"/>
<path d="M0.900146 1174.3C231.1 1184.4 550.5 1190.7 903.6 1190.7C1256.7 1190.7 1576.1 1184.4 1806.4 1174.3H0.900146Z" fill="#382F32"/>
<path d="M1175.9 784.5C1176.1 784.6 1232.3 837.3 1268.5 935.6L1266.1 936.401C1230.1 838.701 1174.3 786.5 1174.1 786.3L1175.9 784.5Z" fill="#8EA8D4"/>
<path d="M249.4 568.5C249.4 568.5 271.2 565.4 271.6 575.7C272.1 586.1 242.8 587.2 249.4 568.5Z" fill="#FFB096"/>
<path d="M354.7 505L319.1 562.5C316.6 566.5 312.5 568.1 308.9 566.3C305.4 564.5 303.6 560 304.5 555.2C308.9 532.6 319.6 504.9 345.2 490C348.8 488 352.7 489 355 492.5C357.3 496.1 357.1 501.1 354.7 505Z" fill="#FFB096"/>
<path d="M232.7 499.9C234.8 514.7 244 564.1 274.8 586.8H302.8C333.6 564.1 342.8 514.7 345 499.9H288.8H232.7Z" fill="white"/>
<path d="M227.8 499C227.8 499 255.5 511.7 248.2 524.1C240.9 536.5 206 515.7 227.8 499Z" fill="#FFB096"/>
<path d="M225.5 531.8C225.5 531.8 255.6 527.5 256.3 541.8C256.9 556.2 216.3 557.7 225.5 531.8Z" fill="#FFB096"/>
<path d="M232.3 548.001C232.3 548.001 262.4 543.701 263 558.101C263.6 572.401 223.1 574.001 232.3 548.001Z" fill="#FFB096"/>
<path d="M262.8 532.7C259.4 528.3 212.9 463.7 222.5 459.3C232 454.8 267.2 530.3 267.2 530.3L262.8 532.7Z" fill="white"/>
<path d="M1138.9 710L1084.7 699.9C1084.7 699.9 1093.3 741.2 1102.1 744.6C1110.9 748 1139.4 736.4 1139.4 736.4C1144.8 733.8 1157.8 717 1138.9 710Z" fill="#FFB096"/>
<path d="M1102.1 708.2C1083.1 694.5 1048.8 692.3 1026.9 703.2C1025.8 703.8 1025.3 704.8 1025.6 705.8C1025.8 706.8 1026.8 707.5 1028 707.5C1039.6 707.6 1051.7 708.1 1064.1 708.9C1076.5 709.7 1088.5 710.8 1099.9 712.2C1101.1 712.3 1102.2 711.8 1102.7 710.8C1103.3 709.9 1103 708.8 1102.1 708.2Z" fill="#FFB096"/>
<path d="M1104.5 707.9C1093.8 709.9 1081.9 716.1 1071.5 726C1061.1 735.9 1054.3 747.5 1051.7 758.1C1051.5 759.2 1052 760.2 1052.9 760.7C1053.9 761.2 1055.1 760.9 1055.9 760.1C1063.5 751.9 1071.7 743.6 1080.4 735.4C1089.1 727.1 1097.8 719.3 1106.3 712.1C1107.2 711.3 1107.5 710.2 1107.1 709.2C1106.6 708.2 1105.6 707.6 1104.5 707.9Z" fill="#FFB096"/>
<path d="M1102.8 717.1C1094.7 720.7 1087.5 728 1083.3 737.9C1079 747.9 1078.6 758.6 1081.2 767.7C1081.5 768.6 1082.4 769.4 1083.4 769.6C1084.4 769.8 1085.3 769.4 1085.6 768.5C1088.3 760.5 1091.5 752.2 1095 743.9C1098.6 735.5 1102.3 727.6 1106.2 720.2C1106.6 719.4 1106.3 718.4 1105.5 717.7C1104.7 716.9 1103.6 716.7 1102.8 717.1Z" fill="#FFB096"/>
<path d="M1106.2 726.3C1099.5 732 1094.3 740.2 1092.1 749.6C1090 759 1091.3 767.8 1095.3 774.2C1095.7 774.9 1096.6 775.2 1097.6 775C1098.5 774.8 1099.3 774.2 1099.4 773.4C1100.5 766.1 1101.9 758.4 1103.7 750.5C1105.5 742.6 1107.5 735 1109.8 727.7C1110 726.9 1109.6 726.2 1108.7 725.9C1107.9 725.6 1106.9 725.8 1106.2 726.3Z" fill="#FFB096"/>
<path d="M1111.5 187.2C1117.2 187.2 1121.9 182.5 1121.9 176.8C1121.9 171.1 1117.2 166.4 1111.5 166.4C1105.7 166.4 1101.1 171.1 1101.1 176.8C1101.1 182.5 1105.7 187.2 1111.5 187.2Z" fill="white"/>
<path d="M1087.6 276.4C1092.6 279.2 1094.3 285.6 1091.4 290.6C1088.5 295.6 1082.1 297.3 1077.2 294.4C1072.2 291.5 1070.5 285.1 1073.4 280.2C1076.2 275.2 1082.6 273.5 1087.6 276.4Z" fill="white"/>
<path d="M1145.8 175.6C1150.7 178.5 1152.4 184.8 1149.6 189.8C1146.7 194.8 1140.3 196.5 1135.3 193.6C1130.4 190.7 1128.7 184.4 1131.5 179.4C1134.4 174.4 1140.8 172.7 1145.8 175.6Z" fill="white"/>
<path d="M1070.1 258.9C1073 263.9 1071.3 270.2 1066.3 273.1C1061.3 276 1054.9 274.3 1052.1 269.3C1049.2 264.3 1050.9 257.9 1055.9 255.1C1060.9 252.2 1067.2 253.9 1070.1 258.9Z" fill="white"/>
<path d="M1170.9 200.7C1173.7 205.7 1172 212 1167 214.9C1162.1 217.8 1155.7 216.1 1152.8 211.1C1150 206.1 1151.7 199.8 1156.6 196.9C1161.6 194 1168 195.7 1170.9 200.7Z" fill="white"/>
<path d="M1063.7 235.001C1063.7 240.701 1059 245.401 1053.3 245.401C1047.5 245.401 1042.9 240.701 1042.9 235.001C1042.9 229.201 1047.5 224.601 1053.3 224.601C1059 224.601 1063.7 229.201 1063.7 235.001Z" fill="white"/>
<path d="M1180 235.001C1180 240.701 1175.4 245.401 1169.6 245.401C1163.9 245.401 1159.2 240.701 1159.2 235.001C1159.2 229.201 1163.9 224.601 1169.6 224.601C1175.4 224.601 1180 229.201 1180 235.001Z" fill="white"/>
<path d="M1070.1 211.1C1067.2 216.1 1060.9 217.8 1055.9 214.9C1050.9 212 1049.2 205.7 1052.1 200.7C1054.9 195.7 1061.3 194 1066.3 196.9C1071.3 199.8 1073 206.1 1070.1 211.1Z" fill="white"/>
<path d="M1087.6 193.6C1082.6 196.5 1076.2 194.8 1073.4 189.8C1070.5 184.8 1072.2 178.5 1077.2 175.6C1082.1 172.7 1088.5 174.4 1091.4 179.4C1094.3 184.4 1092.6 190.7 1087.6 193.6Z" fill="white"/>
<path d="M237.2 297.8H417C429.5 297.8 439.8 308 439.8 320.6V397.2C439.8 409.7 429.5 420 417 420H402.5C394.2 420 387 424.1 382.8 431.3L379.6 436.9C376.6 442.1 371.5 445 365.5 445C359.5 445 354.4 442.1 351.4 436.9L348.2 431.3C344 424.1 336.8 420 328.5 420H237.2C224.7 420 214.4 409.7 214.4 397.2V320.6C214.4 308 224.7 297.8 237.2 297.8Z" fill="white"/>
<path d="M1455.8 389.2H1276C1263.5 389.2 1253.2 399.5 1253.2 412V488.6C1253.2 501.1 1263.5 511.4 1276 511.4H1290.5C1298.8 511.4 1306 515.5 1310.2 522.8L1313.4 528.3C1316.4 533.5 1321.5 536.4 1327.5 536.4C1333.5 536.4 1338.6 533.5 1341.6 528.3L1344.8 522.8C1349 515.5 1356.2 511.4 1364.5 511.4H1455.8C1468.3 511.4 1478.6 501.1 1478.6 488.6V412C1478.6 399.5 1468.3 389.2 1455.8 389.2Z" fill="white"/>
<path d="M754.5 402.6H857.3C864.4 402.6 870.3 408.5 870.3 415.7V459.5C870.3 466.6 864.4 472.5 857.3 472.5H849C844.2 472.5 840.1 474.9 837.7 479L835.9 482.2C834.2 485.1 831.2 486.8 827.8 486.8C824.4 486.8 821.5 485.1 819.8 482.2L817.9 479C815.5 474.9 811.4 472.5 806.7 472.5H754.5C747.3 472.5 741.4 466.6 741.4 459.5V415.7C741.4 408.5 747.3 402.6 754.5 402.6Z" fill="white"/>
<path d="M1410.6 565.8H1318.9C1312.4 565.8 1307.2 571 1307.2 577.4V616.5C1307.2 622.9 1312.4 628.1 1318.9 628.1H1326.2C1330.5 628.1 1334.2 630.2 1336.3 633.9L1337.9 636.8C1339.5 639.4 1342.1 640.9 1345.1 640.9C1348.2 640.9 1350.8 639.4 1352.3 636.8L1353.9 633.9C1356.1 630.2 1359.7 628.1 1364 628.1H1410.6C1417 628.1 1422.2 622.9 1422.2 616.5V577.4C1422.2 571 1417 565.8 1410.6 565.8Z" fill="white"/>
</svg>
