<svg width="24" height="24" viewBox="0 0 24 24" fill="none" xmlns="http://www.w3.org/2000/svg">
<path d="M7.74885 16.2859L16.3203 7.71442M0.857422 18.8573C0.857421 19.3113 1.03756 19.7469 1.35831 20.0683C1.67906 20.3896 2.11422 20.5707 2.56828 20.5716H21.4323C21.8863 20.5707 22.3215 20.3896 22.6422 20.0683C22.963 19.7469 23.1431 19.3113 23.1431 18.8573V15.3704C22.403 15.1697 21.7494 14.7309 21.2835 14.1218C20.8175 13.5126 20.5651 12.7671 20.5651 12.0001C20.5651 11.2332 20.8175 10.4876 21.2835 9.8785C21.7494 9.26937 22.403 8.83057 23.1431 8.62985V5.143C23.1431 4.68893 22.963 4.25342 22.6422 3.93202C22.3215 3.61063 21.8863 3.42962 21.4323 3.42871H2.56828C2.11422 3.42962 1.67906 3.61063 1.35831 3.93202C1.03756 4.25342 0.857421 4.68893 0.857422 5.143V8.623C1.60351 8.81923 2.26362 9.257 2.73467 9.86797C3.20571 10.4789 3.46118 11.2287 3.46118 12.0001C3.46118 12.7716 3.20571 13.5214 2.73467 14.1323C2.26362 14.7433 1.60351 15.181 0.857422 15.3773V18.8573Z" stroke="#A3A3A3" stroke-linecap="round" stroke-linejoin="round"/>
<path d="M8.60519 9.42913C8.83252 9.42913 9.05054 9.33882 9.21128 9.17808C9.37203 9.01733 9.46233 8.79931 9.46233 8.57199C9.46233 8.34466 9.37203 8.12664 9.21128 7.9659C9.05054 7.80515 8.83252 7.71484 8.60519 7.71484C8.37786 7.71484 8.15984 7.80515 7.9991 7.9659C7.83835 8.12664 7.74805 8.34466 7.74805 8.57199C7.74805 8.79931 7.83835 9.01733 7.9991 9.17808C8.15984 9.33882 8.37786 9.42913 8.60519 9.42913ZM15.4623 16.2863C15.6897 16.2863 15.9077 16.196 16.0684 16.0352C16.2292 15.8745 16.3195 15.6565 16.3195 15.4291C16.3195 15.2018 16.2292 14.9838 16.0684 14.823C15.9077 14.6623 15.6897 14.572 15.4623 14.572C15.235 14.572 15.017 14.6623 14.8562 14.823C14.6955 14.9838 14.6052 15.2018 14.6052 15.4291C14.6052 15.6565 14.6955 15.8745 14.8562 16.0352C15.017 16.196 15.235 16.2863 15.4623 16.2863Z" stroke="#A3A3A3" stroke-linecap="round" stroke-linejoin="round"/>
</svg>
