<svg width="40" height="40" viewBox="0 0 40 40" fill="none" xmlns="http://www.w3.org/2000/svg">
<rect x="0.5" y="0.499023" width="39" height="39" rx="19.5" fill="white"/>
<rect x="0.5" y="0.499023" width="39" height="39" rx="19.5" stroke="#656565"/>
<path d="M28.9668 16.5827C28.958 15.1055 28.365 13.6918 27.3173 12.6504C26.2696 11.6089 24.8524 11.0244 23.3752 11.0244H16.6002C15.8612 11.0244 15.1296 11.1706 14.4475 11.4546C13.7653 11.7387 13.1461 12.1549 12.6256 12.6793C12.105 13.2037 11.6934 13.826 11.4144 14.5103C11.1354 15.1945 10.9947 15.9272 11.0002 16.6661V23.3994C11.0023 24.1387 11.151 24.8702 11.4377 25.5516C11.7243 26.233 12.1433 26.8508 12.6703 27.3693C13.1972 27.8877 13.8218 28.2965 14.5078 28.5721C15.1938 28.8476 15.9276 28.9843 16.6668 28.9744H17.5002H21.6668H23.4335C24.1699 28.9712 24.8984 28.8225 25.5772 28.5368C26.256 28.2512 26.8717 27.8344 27.389 27.3102C27.9062 26.786 28.3148 26.1647 28.5913 25.4822C28.8678 24.7996 29.0067 24.0692 29.0002 23.3327L28.9668 16.5827ZM23.0668 20.6411L22.5835 21.8411H20.4252V27.6744H18.7585V21.8411H16.7835V20.6411H18.7418V17.5494C18.7418 16.9372 18.985 16.3501 19.4179 15.9172C19.8508 15.4843 20.4379 15.2411 21.0502 15.2411H23.2168V16.4411H22.0335C21.6076 16.4433 21.1998 16.6134 20.8986 16.9146C20.5975 17.2157 20.4273 17.6235 20.4252 18.0494V20.6411H23.0668ZM26.4918 26.3994C26.0925 26.8059 25.6167 27.1293 25.0918 27.351C24.5669 27.5727 24.0033 27.6883 23.4335 27.6911H21.6668V23.0911H22.7168C22.9253 23.0907 23.1289 23.0278 23.3013 22.9104C23.4736 22.793 23.6068 22.6266 23.6835 22.4327L24.3418 20.8327C24.4031 20.6734 24.4252 20.5017 24.4064 20.3321C24.3875 20.1624 24.3282 19.9997 24.2335 19.8577C24.1409 19.7207 24.0171 19.6076 23.8722 19.5279C23.7273 19.4482 23.5655 19.4042 23.4002 19.3994H21.6668V18.0494C21.6668 17.9544 21.7046 17.8632 21.7718 17.796C21.839 17.7288 21.9301 17.6911 22.0252 17.6911H23.4168C23.6917 17.6933 23.9563 17.5868 24.1529 17.3948C24.3496 17.2028 24.4624 16.9409 24.4668 16.6661V14.9994C24.4668 14.7231 24.3571 14.4582 24.1617 14.2628C23.9664 14.0675 23.7014 13.9577 23.4252 13.9577H21.0502C20.5811 13.9599 20.117 14.0546 19.6846 14.2364C19.2521 14.4182 18.8598 14.6835 18.53 15.0171C18.2003 15.3507 17.9396 15.7461 17.7629 16.1807C17.5861 16.6152 17.4969 17.0803 17.5002 17.5494V19.3911H16.5752C16.2989 19.3911 16.0339 19.5008 15.8386 19.6962C15.6432 19.8915 15.5335 20.1565 15.5335 20.4327V22.0494C15.5335 22.3257 15.6432 22.5906 15.8386 22.786C16.0339 22.9813 16.2989 23.0911 16.5752 23.0911H17.5002V27.7244H16.6668C15.5203 27.7223 14.421 27.2676 13.608 26.4592C12.795 25.6509 12.3339 24.5542 12.3252 23.4077L12.2502 16.6661C12.2479 15.5167 12.7007 14.4131 13.5095 13.5965C14.3183 12.7799 15.4175 12.3166 16.5668 12.3077H23.3502C24.4967 12.3099 25.5959 12.7646 26.409 13.573C27.222 14.3813 27.683 15.478 27.6918 16.6244V23.3577C27.708 24.4901 27.2767 25.5831 26.4918 26.3994Z" fill="#656565"/>
</svg>
