<svg width="40" height="40" viewBox="0 0 40 40" fill="none" xmlns="http://www.w3.org/2000/svg">
<rect x="0.5" y="0.499023" width="39" height="39" rx="19.5" fill="white"/>
<rect x="0.5" y="0.499023" width="39" height="39" rx="19.5" stroke="#656565"/>
<path d="M23.0916 28.9243H16.8499C15.3028 28.9243 13.8191 28.3098 12.7251 27.2158C11.6312 26.1218 11.0166 24.6381 11.0166 23.091V16.8743C11.0166 15.3273 11.6312 13.8435 12.7251 12.7496C13.8191 11.6556 15.3028 11.041 16.8499 11.041H23.0916C24.6387 11.041 26.1224 11.6556 27.2164 12.7496C28.3104 13.8435 28.9249 15.3273 28.9249 16.8743V23.091C28.9249 24.6381 28.3104 26.1218 27.2164 27.2158C26.1224 28.3098 24.6387 28.9243 23.0916 28.9243ZM16.8499 12.3243C15.6431 12.3265 14.4862 12.8064 13.6321 13.6589C12.7779 14.5115 12.296 15.6675 12.2916 16.8743V23.091C12.2916 24.3023 12.771 25.4643 13.6252 26.3231C14.4793 27.1819 15.6387 27.6677 16.8499 27.6743H23.0916C23.6957 27.6765 24.2943 27.5597 24.8532 27.3306C25.4122 27.1014 25.9205 26.7644 26.3492 26.3388C26.7779 25.9132 27.1186 25.4074 27.3517 24.8501C27.5849 24.2928 27.7061 23.6951 27.7083 23.091V16.8743C27.7039 16.2725 27.581 15.6773 27.3467 15.1229C27.1123 14.5685 26.771 14.0657 26.3423 13.6432C25.9136 13.2207 25.4059 12.8867 24.8481 12.6604C24.2904 12.4342 23.6935 12.32 23.0916 12.3243H16.8499ZM24.8749 14.266C24.7101 14.266 24.549 14.3149 24.412 14.4065C24.2749 14.498 24.1681 14.6282 24.105 14.7804C24.042 14.9327 24.0255 15.1003 24.0576 15.2619C24.0898 15.4236 24.1691 15.5721 24.2857 15.6886C24.4022 15.8051 24.5507 15.8845 24.7124 15.9167C24.874 15.9488 25.0416 15.9323 25.1938 15.8692C25.3461 15.8062 25.4763 15.6994 25.5678 15.5623C25.6594 15.4253 25.7083 15.2642 25.7083 15.0993C25.7083 14.8783 25.6205 14.6664 25.4642 14.5101C25.3079 14.3538 25.0959 14.266 24.8749 14.266ZM19.9999 23.5993C19.2812 23.6026 18.5777 23.3922 17.9789 22.9948C17.38 22.5974 16.9128 22.0309 16.6367 21.3673C16.3605 20.7038 16.2878 19.9731 16.4278 19.2682C16.5678 18.5632 16.9143 17.9158 17.4231 17.4082C17.9319 16.9005 18.5801 16.5556 19.2854 16.4172C19.9906 16.2788 20.7211 16.3532 21.384 16.6309C22.0469 16.9086 22.6123 17.3771 23.0084 17.9769C23.4044 18.5767 23.6132 19.2806 23.6083 19.9993C23.5995 20.9529 23.2163 21.8647 22.5413 22.5382C21.8662 23.2117 20.9535 23.5928 19.9999 23.5993ZM19.9999 17.6077C19.5302 17.6044 19.0701 17.7405 18.6777 17.9987C18.2853 18.2569 17.9783 18.6257 17.7955 19.0584C17.6127 19.4911 17.5624 19.9683 17.6508 20.4296C17.7392 20.891 17.9624 21.3157 18.2922 21.6502C18.622 21.9846 19.0436 22.2138 19.5036 22.3087C19.9637 22.4036 20.4415 22.3599 20.8768 22.1832C21.312 22.0065 21.685 21.7047 21.9487 21.316C22.2124 20.9272 22.355 20.4691 22.3583 19.9993C22.3583 19.3708 22.1109 18.7674 21.6696 18.3199C21.2283 17.8723 20.6284 17.6164 19.9999 17.6077Z" fill="#656565"/>
</svg>
