<svg width="286" height="178" viewBox="0 0 286 178" fill="none" xmlns="http://www.w3.org/2000/svg">
<path fill-rule="evenodd" clip-rule="evenodd" d="M195.02 6.18859C196.286 8.80799 198.81 11.633 198.81 11.633C202.601 17.0775 210.183 27.9664 217.765 30.6886C225.346 33.4108 232.928 35.3367 240.51 36.2441C248.092 37.1515 255.673 37.0404 263.255 41.5775C270.837 46.1145 278.418 47.9293 282.209 48.8367L286 50.2441V17.7441C286 17.7441 286 10.4304 286 5.74414C286 4.24414 284.5 2.74414 284.5 2.74414C284.5 2.74414 282.5 0.744141 281 0.744141C279.5 0.744141 270.837 0.744141 263.255 0.744141C255.673 0.744141 248.092 0.744141 240.51 0.744141C232.928 0.744141 225.346 0.744141 217.765 0.744141C210.183 0.744141 202.601 0.744141 198.81 0.744141H195.02H193C193 0.744141 194.099 4.28462 195.02 6.18859Z" fill="#FFD83A"/>
<path fill-rule="evenodd" clip-rule="evenodd" d="M206.759 7.74414C207.862 11.1119 210.061 14.7441 210.061 14.7441C213.362 21.7441 219.966 25.7441 226.569 29.2441C233.173 32.7441 239.776 35.7441 246.38 36.9108C252.983 38.0775 259.586 47.4108 266.19 53.2441C272.793 59.0775 279.397 61.4108 282.698 62.5775L286 63.7441V5.74414C286 5.74414 285.517 3.71838 284.5 2.74414C283.363 1.65491 282.5 0.744141 279.5 0.744141C276.5 0.744141 272.793 0.744141 266.19 0.744141C259.586 0.744141 252.983 0.744141 246.38 0.744141C239.776 0.744141 233.173 0.744141 226.569 0.744141C219.966 0.744141 213.362 0.744141 210.061 0.744141H206.759H205C205 0.744141 205.957 5.29619 206.759 7.74414Z" fill="#FFD013"/>
<path fill-rule="evenodd" clip-rule="evenodd" d="M6.00001 164.921H280C283.314 164.921 286 162.235 286 158.921V126.99C283.381 127.475 280.537 128.074 277.422 128.799C265.773 131.512 257.92 134.851 251.389 137.628C237.876 143.372 230.023 146.711 205.922 137.126C196.473 133.368 189.521 129.906 183.747 127.03C167.674 119.026 160.723 115.564 134.422 122.908C123.255 126.027 115.576 129.475 109.206 132.335C95.1836 138.631 87.5047 142.079 62.9219 132.891C52.9719 129.172 45.7912 125.631 39.8383 122.695C30.5395 118.109 24.2365 115.001 15.054 115C15.0524 115 15.0508 115 15.0492 115C10.8305 115 6.00396 115.656 0 117.126V158.921C0 162.235 2.6863 164.921 6.00001 164.921Z" fill="#FFE889"/>
<path fill-rule="evenodd" clip-rule="evenodd" d="M6.00001 171.369H280C283.314 171.369 286 168.682 286 165.369V133.437C283.38 133.922 280.536 134.521 277.42 135.247C265.771 137.96 257.918 141.299 251.387 144.075C237.874 149.82 230.021 153.158 205.92 143.573C196.471 139.816 189.519 136.354 183.745 133.478C167.673 125.474 160.721 122.012 134.42 129.356C123.253 132.474 115.574 135.922 109.204 138.782C95.1816 145.079 87.5027 148.527 62.9199 139.338C52.97 135.619 45.7893 132.078 39.8364 129.142C30.5376 124.556 24.2346 121.448 15.052 121.448C15.0504 121.448 15.0488 121.448 15.0472 121.448C10.829 121.448 6.00306 122.104 0 123.573V165.369C0 168.682 2.6863 171.369 6.00001 171.369Z" fill="#FFE062"/>
<path fill-rule="evenodd" clip-rule="evenodd" d="M6.00001 178H280C283.314 178 286 175.314 286 172V140.069C283.38 140.553 280.536 141.153 277.421 141.878C265.772 144.591 257.919 147.93 251.388 150.706C237.875 156.451 230.022 159.79 205.921 150.205C196.472 146.447 189.52 142.985 183.746 140.109C167.673 132.105 160.722 128.643 134.421 135.987C123.254 139.105 115.575 142.554 109.205 145.414C95.1826 151.71 87.5037 155.158 62.9209 145.97C52.9709 142.251 45.7903 138.71 39.8374 135.774C30.5385 131.188 24.2356 128.079 15.053 128.079C15.0514 128.079 15.0498 128.079 15.0482 128.079C10.8298 128.079 6.00351 128.735 0 130.205V172C0 175.314 2.6863 178 6.00001 178Z" fill="#FFD013"/>
</svg>
