<svg width="40" height="40" viewBox="0 0 40 40" fill="none" xmlns="http://www.w3.org/2000/svg">
<rect x="0.5" y="0.499023" width="39" height="39" rx="19.5" fill="white"/>
<rect x="0.5" y="0.499023" width="39" height="39" rx="19.5" stroke="#656565"/>
<path d="M27.3261 20.5052C27.5296 20.3308 27.6313 20.2436 27.6686 20.1399C27.7013 20.0488 27.7013 19.9492 27.6686 19.8582C27.6313 19.7544 27.5296 19.6672 27.3261 19.4929L20.2672 13.4423C19.917 13.1422 19.7419 12.9921 19.5937 12.9884C19.4648 12.9852 19.3418 13.0418 19.2603 13.1417C19.1667 13.2567 19.1667 13.4873 19.1667 13.9485V17.5279C17.3878 17.8391 15.7597 18.7405 14.5498 20.0939C13.2307 21.5694 12.501 23.479 12.5 25.4582V25.9682C13.3745 24.9147 14.4663 24.0628 15.7006 23.4706C16.7889 22.9485 17.9653 22.6393 19.1667 22.5578V26.0495C19.1667 26.5108 19.1667 26.7414 19.2603 26.8563C19.3418 26.9562 19.4648 27.0128 19.5937 27.0096C19.7419 27.006 19.917 26.8559 20.2672 26.5557L27.3261 20.5052Z" stroke="#656565" stroke-width="1.6" stroke-linecap="round" stroke-linejoin="round"/>
</svg>
