<svg width="29" height="30" viewBox="0 0 29 30" fill="none" xmlns="http://www.w3.org/2000/svg">
<path d="M4.49935 28.3332V21.6665M4.49935 8.33317V1.6665M1.16602 4.99984H7.83268M1.16602 24.9998H7.83268M15.8327 2.99984L13.5204 9.01165C13.1444 9.98929 12.9564 10.4781 12.6641 10.8893C12.4049 11.2537 12.0865 11.5721 11.7221 11.8312C11.311 12.1236 10.8221 12.3116 9.8445 12.6876L3.83268 14.9998L9.8445 17.3121C10.8221 17.6881 11.311 17.8761 11.7221 18.1685C12.0865 18.4276 12.4049 18.746 12.6641 19.1104C12.9564 19.5216 13.1444 20.0104 13.5204 20.988L15.8327 26.9998L18.1449 20.988C18.5209 20.0104 18.7089 19.5216 19.0013 19.1104C19.2604 18.746 19.5788 18.4276 19.9432 18.1685C20.3544 17.8761 20.8432 17.6881 21.8209 17.3121L27.8327 14.9998L21.8209 12.6876C20.8432 12.3116 20.3544 12.1236 19.9432 11.8312C19.5788 11.5721 19.2604 11.2537 19.0013 10.8893C18.7089 10.4781 18.5209 9.98929 18.1449 9.01165L15.8327 2.99984Z" stroke="#FFD013" stroke-width="2" stroke-linecap="round" stroke-linejoin="round"/>
</svg>
