<svg width="40" height="40" viewBox="0 0 40 40" fill="none" xmlns="http://www.w3.org/2000/svg">
<rect x="0.5" y="0.499023" width="39" height="39" rx="19.5" fill="white"/>
<rect x="0.5" y="0.499023" width="39" height="39" rx="19.5" stroke="#656565"/>
<g clip-path="url(#clip0_497_2977)">
<path fill-rule="evenodd" clip-rule="evenodd" d="M27.0857 12.9055C25.2058 11.0322 22.7056 10.0001 20.042 9.99902C14.5536 9.99902 10.0867 14.4446 10.0845 19.9089C10.0837 21.6555 10.5423 23.3606 11.4136 24.8634L10.001 29.999L15.2796 28.6209C16.7339 29.4104 18.3714 29.8265 20.038 29.8272H20.0421C25.5299 29.8272 29.9972 25.3811 29.9994 19.9168C30.0005 17.2687 28.9657 14.7787 27.0857 12.9055ZM20.0421 28.1534H20.0387C18.5536 28.1528 17.097 27.7557 15.8264 27.0052L15.5241 26.8267L12.3918 27.6445L13.2279 24.6048L13.0311 24.2932C12.2026 22.9817 11.765 21.4659 11.7657 19.9095C11.7675 15.3678 15.4802 11.6728 20.0454 11.6728C22.2559 11.6737 24.3339 12.5316 25.8965 14.0886C27.459 15.6455 28.3191 17.7151 28.3183 19.9161C28.3164 24.4581 24.6037 28.1534 20.0421 28.1534ZM24.5817 21.9842C24.3329 21.8602 23.1097 21.2611 22.8816 21.1785C22.6536 21.0959 22.4877 21.0546 22.3218 21.3025C22.156 21.5504 21.6792 22.1081 21.534 22.2734C21.3889 22.4387 21.2438 22.4593 20.995 22.3354C20.7462 22.2114 19.9445 21.95 18.9942 21.1063C18.2546 20.4497 17.7552 19.6388 17.6101 19.3909C17.4649 19.143 17.5946 19.0089 17.7192 18.8855C17.8311 18.7745 17.968 18.5963 18.0924 18.4516C18.2168 18.307 18.2582 18.2038 18.3412 18.0385C18.4241 17.8732 18.3826 17.7286 18.3204 17.6047C18.2582 17.4807 17.7607 16.2619 17.5533 15.7661C17.3514 15.2832 17.1462 15.3485 16.9935 15.341C16.8486 15.3338 16.6825 15.3322 16.5167 15.3322C16.3508 15.3322 16.0813 15.3942 15.8532 15.6421C15.6252 15.89 14.9825 16.4891 14.9825 17.708C14.9825 18.9268 15.874 20.1043 15.9984 20.2696C16.1227 20.4348 17.7528 22.9361 20.2486 24.0087C20.8422 24.2638 21.3056 24.4162 21.667 24.5304C22.263 24.7188 22.8054 24.6922 23.2341 24.6284C23.7121 24.5574 24.7061 24.0294 24.9135 23.4509C25.1208 22.8725 25.1208 22.3767 25.0586 22.2734C24.9964 22.1701 24.8305 22.1081 24.5817 21.9842Z" fill="#656565"/>
</g>
<defs>
<clipPath id="clip0_497_2977">
<rect width="20" height="20" fill="white" transform="translate(10 9.99902)"/>
</clipPath>
</defs>
</svg>
